<?xml version="1.0" encoding="iso-8859-1"?>
<!-- Generator: Adobe Illustrator 24.1.0, SVG Export Plug-In . SVG Version: 6.00 Build 0)  -->
<svg version="1.1" xmlns="http://www.w3.org/2000/svg" xmlns:xlink="http://www.w3.org/1999/xlink" x="0px" y="0px"
	 viewBox="0 0 512 512" style="enable-background:new 0 0 512 512;" xml:space="preserve">
<g id="_x32_6_x2C__Telegram">
	<g>
		<g>
			<path d="M256,1C115.068,1,1,115.049,1,256c0,140.932,114.049,255,255,255c140.932,0,255-114.049,255-255
				C511,115.068,396.951,1,256,1z M256,491C126.421,491,21,385.579,21,256S126.421,21,256,21s235,105.421,235,235
				S385.579,491,256,491z"/>
			<path d="M379.22,118.941L74.546,240.812c-17.404,6.963-17.129,31.724,0.417,38.305l63.191,23.697l44.761,111.9
				c2.713,6.775,11.573,8.457,16.582,3.124l51.532-54.997l73.456,48.004c12.141,7.935,28.522,1.104,31.378-13.167l51.127-255.637
				C410.185,126.069,394.343,112.889,379.22,118.941z M194.26,310.813c-1.895,1.728-2.994,4.109-3.215,6.442l-4.9,51.679
				l-27.745-69.363l117.603-63.342L194.26,310.813z M204.919,382.801l4.473-47.17l24.638,16.102L204.919,382.801z M336.251,393.756
				c-0.022,0.112-0.057,0.282-0.321,0.394c-0.411,0.173,8.289,5.701-118.656-77.261L349.34,196.387
				c3.729-3.403,4.338-9.053,1.417-13.172c-2.921-4.117-8.454-5.414-12.899-3.019L145.058,284.042
				c-67.817-25.431-63.418-23.576-63.424-24.153c-0.004-0.369,0.118-0.419,0.34-0.507
				c319.068-127.626,304.834-122.104,305.22-121.784C387.579,137.918,389.828,125.87,336.251,393.756z"/>
		</g>
	</g>
</g>
<g id="Layer_1">
</g>
</svg>
